<mxfile host="Electron" modified="2024-03-26T21:13:57.815Z" agent="Mozilla/5.0 (Windows NT 10.0; Win64; x64) AppleWebKit/537.36 (KHTML, like Gecko) draw.io/23.1.5 Chrome/120.0.6099.109 Electron/28.1.0 Safari/537.36" etag="eczjWRgvjVWFRrU0wLZP" version="23.1.5" type="device">
  <diagram name="Page-1" id="iRyyKmQIzl9rFihjQDhw">
    <mxGraphModel dx="600" dy="355" grid="1" gridSize="10" guides="1" tooltips="1" connect="1" arrows="1" fold="1" page="1" pageScale="1" pageWidth="850" pageHeight="1100" math="0" shadow="0">
      <root>
        <mxCell id="0" />
        <mxCell id="1" parent="0" />
        <mxCell id="zYGX3FI0uth6cSDIzJyD-83" value="báo cáo doanh thu bán vé các chuyến bay" style="ellipse;whiteSpace=wrap;html=1;" parent="1" vertex="1">
          <mxGeometry x="320" y="160" width="160" height="80" as="geometry" />
        </mxCell>
        <mxCell id="zYGX3FI0uth6cSDIzJyD-84" value="Người dùng" style="rounded=1;whiteSpace=wrap;html=1;" parent="1" vertex="1">
          <mxGeometry x="340" y="20" width="120" height="60" as="geometry" />
        </mxCell>
        <mxCell id="zYGX3FI0uth6cSDIzJyD-85" value="Tb xuất" style="rounded=1;whiteSpace=wrap;html=1;" parent="1" vertex="1">
          <mxGeometry x="560" y="170" width="120" height="60" as="geometry" />
        </mxCell>
        <mxCell id="zYGX3FI0uth6cSDIzJyD-86" value="Tb nhập" style="rounded=1;whiteSpace=wrap;html=1;" parent="1" vertex="1">
          <mxGeometry x="120" y="170" width="120" height="60" as="geometry" />
        </mxCell>
        <mxCell id="zYGX3FI0uth6cSDIzJyD-94" value="" style="shape=flexArrow;endArrow=classic;html=1;rounded=0;exitX=0.357;exitY=0.989;exitDx=0;exitDy=0;exitPerimeter=0;entryX=0.386;entryY=0.017;entryDx=0;entryDy=0;entryPerimeter=0;fillColor=#000000;strokeColor=#FFFFFF;" parent="1" source="zYGX3FI0uth6cSDIzJyD-84" target="zYGX3FI0uth6cSDIzJyD-83" edge="1">
          <mxGeometry width="50" height="50" relative="1" as="geometry">
            <mxPoint x="360" y="180" as="sourcePoint" />
            <mxPoint x="410" y="130" as="targetPoint" />
          </mxGeometry>
        </mxCell>
        <mxCell id="zYGX3FI0uth6cSDIzJyD-95" value="" style="shape=flexArrow;endArrow=classic;html=1;rounded=0;entryX=0.726;entryY=1.022;entryDx=0;entryDy=0;entryPerimeter=0;exitX=0.671;exitY=0.022;exitDx=0;exitDy=0;exitPerimeter=0;fillColor=#000000;strokeColor=#FFFFFF;" parent="1" source="zYGX3FI0uth6cSDIzJyD-83" target="zYGX3FI0uth6cSDIzJyD-84" edge="1">
          <mxGeometry width="50" height="50" relative="1" as="geometry">
            <mxPoint x="400" y="170" as="sourcePoint" />
            <mxPoint x="450" y="120" as="targetPoint" />
          </mxGeometry>
        </mxCell>
        <mxCell id="zYGX3FI0uth6cSDIzJyD-96" value="" style="shape=flexArrow;endArrow=classic;html=1;rounded=0;entryX=0;entryY=0.5;entryDx=0;entryDy=0;exitX=1;exitY=0.5;exitDx=0;exitDy=0;fillColor=#000000;strokeColor=#FFFFFF;" parent="1" source="zYGX3FI0uth6cSDIzJyD-83" target="zYGX3FI0uth6cSDIzJyD-85" edge="1">
          <mxGeometry width="50" height="50" relative="1" as="geometry">
            <mxPoint x="420" y="170" as="sourcePoint" />
            <mxPoint x="470" y="120" as="targetPoint" />
          </mxGeometry>
        </mxCell>
        <mxCell id="zYGX3FI0uth6cSDIzJyD-97" value="" style="shape=flexArrow;endArrow=classic;html=1;rounded=0;entryX=0;entryY=0.5;entryDx=0;entryDy=0;exitX=1;exitY=0.5;exitDx=0;exitDy=0;" parent="1" source="zYGX3FI0uth6cSDIzJyD-86" target="zYGX3FI0uth6cSDIzJyD-83" edge="1">
          <mxGeometry width="50" height="50" relative="1" as="geometry">
            <mxPoint x="420" y="170" as="sourcePoint" />
            <mxPoint x="470" y="120" as="targetPoint" />
          </mxGeometry>
        </mxCell>
        <mxCell id="zYGX3FI0uth6cSDIzJyD-98" value="" style="endArrow=none;html=1;rounded=0;" parent="1" edge="1">
          <mxGeometry width="50" height="50" relative="1" as="geometry">
            <mxPoint x="360" y="320" as="sourcePoint" />
            <mxPoint x="440" y="320" as="targetPoint" />
          </mxGeometry>
        </mxCell>
        <mxCell id="zYGX3FI0uth6cSDIzJyD-99" value="" style="endArrow=none;html=1;rounded=0;" parent="1" edge="1">
          <mxGeometry width="50" height="50" relative="1" as="geometry">
            <mxPoint x="360" y="360" as="sourcePoint" />
            <mxPoint x="440" y="360" as="targetPoint" />
          </mxGeometry>
        </mxCell>
        <mxCell id="zYGX3FI0uth6cSDIzJyD-101" value="" style="shape=flexArrow;endArrow=classic;html=1;rounded=0;fillColor=#000000;strokeColor=#FFFFFF;exitX=0.625;exitY=1;exitDx=0;exitDy=0;exitPerimeter=0;entryX=0.727;entryY=-0.027;entryDx=0;entryDy=0;entryPerimeter=0;" parent="1" source="zYGX3FI0uth6cSDIzJyD-83" edge="1" target="zYGX3FI0uth6cSDIzJyD-102">
          <mxGeometry width="50" height="50" relative="1" as="geometry">
            <mxPoint x="430" y="250" as="sourcePoint" />
            <mxPoint x="420" y="320" as="targetPoint" />
          </mxGeometry>
        </mxCell>
        <mxCell id="zYGX3FI0uth6cSDIzJyD-102" value="Bộ nhớ phụ" style="text;html=1;align=center;verticalAlign=middle;resizable=0;points=[];autosize=1;strokeColor=none;fillColor=none;" parent="1" vertex="1">
          <mxGeometry x="355" y="320" width="90" height="30" as="geometry" />
        </mxCell>
        <mxCell id="uZK5isMZc-4fUwDppkmD-1" value="&lt;div&gt;&lt;br&gt;&lt;/div&gt;D1: Tháng + Năm&lt;div&gt;D2: Không có&lt;/div&gt;&lt;div&gt;D3: Doanh sách các vé chuyến bay đã bán&amp;nbsp; (D1) *&lt;/div&gt;&lt;div&gt;D4: D1 + thông tin của tháng đó có những chuyến bay, số vé bán được của chuyến bay trong tháng năm đó,&amp;nbsp;&lt;/div&gt;&lt;div&gt;&lt;span style=&quot;white-space: pre;&quot;&gt;&#x9;&lt;span style=&quot;white-space: pre;&quot;&gt;&#x9;&lt;/span&gt;+&lt;/span&gt;tổng doanh thu của chuyến bay trong tháng năm đó&amp;nbsp;&lt;/div&gt;&lt;div&gt;&lt;span style=&quot;white-space: pre;&quot;&gt;&#x9;&lt;/span&gt;&lt;span style=&quot;white-space: pre;&quot;&gt;&#x9;&lt;/span&gt;+ tổng doanh thu của chuyến bay tỉ lệ với tổng doanh thu của cả tháng năm đó&lt;/div&gt;&lt;div&gt;D5 :D4&lt;/div&gt;&lt;div&gt;D6:&amp;nbsp; D5&lt;/div&gt;&lt;div&gt;&lt;br&gt;&lt;/div&gt;" style="text;html=1;align=left;verticalAlign=middle;resizable=0;points=[];autosize=1;strokeColor=none;fillColor=none;" parent="1" vertex="1">
          <mxGeometry x="105" y="405" width="600" height="160" as="geometry" />
        </mxCell>
        <mxCell id="rLTW1ac-35fiPMLGcH2r-13" value="&lt;b&gt;&lt;u&gt;Thuật toán&lt;/u&gt;&lt;/b&gt;" style="text;html=1;align=center;verticalAlign=middle;resizable=0;points=[];autosize=1;strokeColor=#6F0000;fillColor=#a20025;fontColor=#ffffff;" parent="1" vertex="1">
          <mxGeometry x="80" y="550" width="80" height="30" as="geometry" />
        </mxCell>
        <mxCell id="rLTW1ac-35fiPMLGcH2r-14" value="B1: Nhận D1 từ người dùng" style="text;html=1;align=left;verticalAlign=middle;resizable=0;points=[];autosize=1;strokeColor=none;fillColor=none;" parent="1" vertex="1">
          <mxGeometry x="110" y="598" width="170" height="30" as="geometry" />
        </mxCell>
        <mxCell id="rLTW1ac-35fiPMLGcH2r-15" value="B2: kết nối với cơ sở dữ liệu" style="text;html=1;align=left;verticalAlign=middle;resizable=0;points=[];autosize=1;strokeColor=none;fillColor=none;" parent="1" vertex="1">
          <mxGeometry x="110" y="638" width="170" height="30" as="geometry" />
        </mxCell>
        <mxCell id="rLTW1ac-35fiPMLGcH2r-16" value="B3: Đọc D3 từ bộ nhớ phụ" style="text;html=1;align=left;verticalAlign=middle;resizable=0;points=[];autosize=1;strokeColor=none;fillColor=none;" parent="1" vertex="1">
          <mxGeometry x="112.5" y="680" width="160" height="30" as="geometry" />
        </mxCell>
        <mxCell id="rLTW1ac-35fiPMLGcH2r-17" value="B4: Đếm số vé từ danh sách vé D3 và gom nhóm từng chuyến bay trong tháng năm D1 đó&amp;nbsp;" style="text;html=1;align=left;verticalAlign=middle;resizable=0;points=[];autosize=1;strokeColor=none;fillColor=none;" parent="1" vertex="1">
          <mxGeometry x="110" y="718" width="510" height="30" as="geometry" />
        </mxCell>
        <mxCell id="rLTW1ac-35fiPMLGcH2r-18" value="B5: Tính tổng doanh thu của của tổng tất cả các vé từ danh sách vé D3 và nhóm từng chuyến bay&lt;br&gt;&lt;span style=&quot;white-space: pre;&quot;&gt;&#x9;&lt;/span&gt;bán được trong tháng năm D1 của chuyến bay đó" style="text;html=1;align=left;verticalAlign=middle;resizable=0;points=[];autosize=1;strokeColor=none;fillColor=none;" parent="1" vertex="1">
          <mxGeometry x="110" y="753" width="550" height="40" as="geometry" />
        </mxCell>
        <mxCell id="rLTW1ac-35fiPMLGcH2r-19" value="B6: Tính tỉ lệ doanh thu bán vé các chuyến bay dựa vào số doanh thu của chuyến bay đó&amp;nbsp;&lt;br&gt;&lt;span style=&quot;white-space: pre;&quot;&gt;&#x9;&lt;/span&gt;với&amp;nbsp;tổng doanh thu của tất cả các chuyến bay trong tháng + năm D1" style="text;html=1;align=left;verticalAlign=middle;resizable=0;points=[];autosize=1;strokeColor=none;fillColor=none;" parent="1" vertex="1">
          <mxGeometry x="112.5" y="795" width="500" height="40" as="geometry" />
        </mxCell>
        <mxCell id="rLTW1ac-35fiPMLGcH2r-20" value="B7: lưu D4 xuống bộ nhớ phụ" style="text;html=1;align=left;verticalAlign=middle;resizable=0;points=[];autosize=1;strokeColor=none;fillColor=none;" parent="1" vertex="1">
          <mxGeometry x="112.5" y="840" width="180" height="30" as="geometry" />
        </mxCell>
        <mxCell id="rLTW1ac-35fiPMLGcH2r-21" value="B8: Xuất D5 ra máy xuất" style="text;html=1;align=left;verticalAlign=middle;resizable=0;points=[];autosize=1;strokeColor=none;fillColor=none;" parent="1" vertex="1">
          <mxGeometry x="112.5" y="878" width="150" height="30" as="geometry" />
        </mxCell>
        <mxCell id="rLTW1ac-35fiPMLGcH2r-22" value="B9: Trả D6 cho người dùng" style="text;html=1;align=left;verticalAlign=middle;resizable=0;points=[];autosize=1;strokeColor=none;fillColor=none;" parent="1" vertex="1">
          <mxGeometry x="112.5" y="920" width="170" height="30" as="geometry" />
        </mxCell>
        <mxCell id="rLTW1ac-35fiPMLGcH2r-23" value="B10: Đóng kết nối cơ sở dữ liệu" style="text;html=1;align=left;verticalAlign=middle;resizable=0;points=[];autosize=1;strokeColor=none;fillColor=none;" parent="1" vertex="1">
          <mxGeometry x="112.5" y="950" width="190" height="30" as="geometry" />
        </mxCell>
        <mxCell id="rLTW1ac-35fiPMLGcH2r-24" value="B11: Kết thúc" style="text;html=1;align=left;verticalAlign=middle;resizable=0;points=[];autosize=1;strokeColor=none;fillColor=none;" parent="1" vertex="1">
          <mxGeometry x="112.5" y="988" width="90" height="30" as="geometry" />
        </mxCell>
        <mxCell id="rLTW1ac-35fiPMLGcH2r-25" value="&lt;div style=&quot;text-align: center;&quot;&gt;&lt;span style=&quot;background-color: initial;&quot;&gt;&lt;font color=&quot;#ffffff&quot;&gt;&lt;b&gt;&lt;u&gt;Mô tả luồng dữ liệu&lt;/u&gt;&lt;/b&gt;&lt;/font&gt;&lt;/span&gt;&lt;/div&gt;" style="text;whiteSpace=wrap;html=1;fillColor=#a20025;fontColor=#ffffff;strokeColor=#6F0000;" parent="1" vertex="1">
          <mxGeometry x="80" y="375" width="120" height="30" as="geometry" />
        </mxCell>
        <mxCell id="rLTW1ac-35fiPMLGcH2r-26" value="D1" style="text;html=1;align=center;verticalAlign=middle;whiteSpace=wrap;rounded=0;" parent="1" vertex="1">
          <mxGeometry x="310" y="100" width="60" height="30" as="geometry" />
        </mxCell>
        <mxCell id="rLTW1ac-35fiPMLGcH2r-27" value="D2" style="text;html=1;align=center;verticalAlign=middle;whiteSpace=wrap;rounded=0;" parent="1" vertex="1">
          <mxGeometry x="240" y="220" width="60" height="30" as="geometry" />
        </mxCell>
        <mxCell id="rLTW1ac-35fiPMLGcH2r-28" value="D3" style="text;html=1;align=center;verticalAlign=middle;whiteSpace=wrap;rounded=0;" parent="1" vertex="1">
          <mxGeometry x="310" y="270" width="60" height="30" as="geometry" />
        </mxCell>
        <mxCell id="rLTW1ac-35fiPMLGcH2r-29" value="D4" style="text;html=1;align=center;verticalAlign=middle;whiteSpace=wrap;rounded=0;" parent="1" vertex="1">
          <mxGeometry x="445" y="270" width="60" height="30" as="geometry" />
        </mxCell>
        <mxCell id="rLTW1ac-35fiPMLGcH2r-30" value="D5" style="text;html=1;align=center;verticalAlign=middle;whiteSpace=wrap;rounded=0;" parent="1" vertex="1">
          <mxGeometry x="480" y="150" width="60" height="30" as="geometry" />
        </mxCell>
        <mxCell id="rLTW1ac-35fiPMLGcH2r-31" value="D6" style="text;html=1;align=center;verticalAlign=middle;whiteSpace=wrap;rounded=0;" parent="1" vertex="1">
          <mxGeometry x="445" y="100" width="60" height="30" as="geometry" />
        </mxCell>
        <mxCell id="Zmzzj8-0tDCdYsLgJSoT-2" value="" style="shape=flexArrow;endArrow=classic;html=1;rounded=0;fillColor=#000000;strokeColor=#FFFFFF;exitX=0.34;exitY=-0.035;exitDx=0;exitDy=0;exitPerimeter=0;" edge="1" parent="1" source="zYGX3FI0uth6cSDIzJyD-102">
          <mxGeometry width="50" height="50" relative="1" as="geometry">
            <mxPoint x="384.71000000000004" y="310" as="sourcePoint" />
            <mxPoint x="384.71000000000004" y="240" as="targetPoint" />
          </mxGeometry>
        </mxCell>
      </root>
    </mxGraphModel>
  </diagram>
</mxfile>
